<svg width="155" height="55" fill="none" xmlns="http://www.w3.org/2000/svg"><g clip-path="url(#clip0_1_7)"><path d="M41.592 9.282h9.15c.227 0 .43.184.503.46l9.735 37.31c.114.434-.142.88-.504.88h-7.8c-.237 0-.443-.2-.51-.487l-1.404-6.166c-.064-.287-.274-.486-.51-.486h-8.217c-.24 0-.446.2-.51.49l-1.366 6.159c-.064.287-.273.49-.51.49h-7.797c-.362 0-.615-.446-.504-.88l9.743-37.31c.073-.272.274-.46.504-.46h-.003zm6.48 23.025c.352 0 .605-.424.509-.855l-1.217-5.418a155.536 155.536 0 01-.72-3.735c-.128-.703-.923-.689-1.033.018-.204 1.275-.446 2.682-.685 3.717l-1.217 5.418c-.096.427.157.855.51.855h3.852z" fill="#17A550"/><path d="M37.329 24.155a54.443 54.443 0 00-1.433-5.433 34.455 34.455 0 018.672-4.777c-5.57-3.69-11.613-5.801-17.728-6.32-.303 5.812-.612 11.624-.917 17.437 3.532.298 7.032 1.366 10.334 3.2l1.072-4.107z" fill="#FFC728"/><path d="M54.254 22.384h1.904v-.475c0-6.715 4.682-7.743 7.743-7.743 1.342 0 2.216.2 2.216.2v6.08s-.594-.158-1.25-.158c-1.062 0-2.186.354-2.186 1.698v.394h4.965v-.475c0-6.674 5.276-8.49 8.713-8.49 3.028 0 4.84 1.145 4.84 1.145l-1.311 5.964s-1.063-.789-2.717-.789c-1.343 0-2.997.752-2.997 2.251v.394h10.274v20.34h-6.526V28.46h-3.748v14.26H67.65V28.46h-4.965v14.26h-6.526V28.46h-1.904v-6.08.003zm31.583-7.897h6.526V33.72c0 1.934.28 2.527 1.342 2.527.312 0 .656-.077.656-.077v6.596s-.967.159-2.155.159c-3.215 0-6.369-1.264-6.369-8.096V14.487zm10.242 7.897h6.525v20.34h-6.525v-20.34zm.06-8.571h6.401v6.004h-6.4v-6.004zm16.724 16.236h.126v-.357c0-1.304-.749-1.816-1.998-1.816-2.123 0-4.371 1.738-4.371 1.738l-1.843-5.333s2.749-2.369 7.274-2.369 7.463 2.844 7.463 8.096v12.719h-5.963v-1.223c0-.552.061-1.145.061-1.145h-.061s-1.218 2.843-4.403 2.843c-2.717 0-5.402-2.173-5.402-6.398 0-6.32 6.619-6.751 9.117-6.751v-.004zm-1.811 7.742c1.217 0 2.091-1.54 2.091-2.961v-.67h-.405c-1.436 0-2.967.593-2.967 2.132 0 .91.437 1.5 1.281 1.5zm11.205-8.969h-1.997v-6.08h2.155v-5.846h6.368v5.845h3.311v6.081h-3.311v4.818c0 2.332 1.468 2.608 2.406 2.608.687 0 1.124-.077 1.124-.077v6.596s-.999.159-2.435.159c-2.996 0-7.618-1.105-7.618-8.096v-6.004l-.003-.004zm19.983-6.91c5.119 0 7.681 4.188 7.681 9.478 0 .91-.125 2.526-.125 2.526h-9.74c.25 2.251 1.592 3.16 3.34 3.16 2.53 0 4.339-1.856 4.339-1.856l2.154 5.253s-2.466 2.726-7.023 2.726c-6.433 0-9.368-5.253-9.368-10.664 0-5.923 3.215-10.623 8.742-10.623zm1.811 7.86c-.032-1.657-.813-2.684-1.843-2.684-1.186 0-1.873 1.068-2.062 2.685h3.905z" fill="#1D2F38"/><path d="M4.733 4.292l-.412.24c-.57.331-.82 1.184-.558 1.905l16.622 45.711c.262.721.937 1.037 1.507.705l.412-.24c.57-.331.82-1.184.558-1.905L6.24 4.996c-.262-.72-.937-1.036-1.507-.704z" fill="#768F9C"/><path d="M5.013 7.913c1.556-.435 2.539-2.384 2.194-4.352C6.863 1.592 5.323.35 3.767.785c-1.557.435-2.54 2.384-2.195 4.352.344 1.969 1.885 3.211 3.44 2.776z" fill="#768F9C"/><path d="M33.04 8.704c-1.925-.545-4.858-.969-6.197-1.08-.303 5.813-.612 11.625-.918 17.438.92.077 3.64.637 4.555.821.952-6.534 1.837-11.422 2.562-17.176l-.002-.003z" fill="#FEAD1C"/><path d="M27.827 24.2c-5.772-.928-11.706.158-17.131 3.285-2.042-5.665-4.08-11.326-6.121-16.991C11.992 6.22 20.058 4.545 27.97 5.44c.943.107 1.625 1.197 1.505 2.383l-1.648 16.373v.004z" fill="#FFC728"/></g><defs><clipPath id="clip0_1_7"><path fill="#fff" d="M0 0h155v55H0z"/></clipPath></defs></svg>